<mxfile host="app.diagrams.net" modified="2021-05-28T07:47:48.487Z" agent="5.0 (Windows NT 10.0; Win64; x64) AppleWebKit/537.36 (KHTML, like Gecko) Chrome/88.0.4324.182 Safari/537.36" etag="5c0ZzFE8-oc9yHilP2_E" version="14.7.2" type="github">
  <diagram id="lsasEGC-pvyJG4T-pI8P" name="Page-1">
    <mxGraphModel dx="723" dy="375" grid="1" gridSize="10" guides="1" tooltips="1" connect="1" arrows="1" fold="1" page="1" pageScale="1" pageWidth="827" pageHeight="1169" math="0" shadow="0">
      <root>
        <mxCell id="0" />
        <mxCell id="1" parent="0" />
        <mxCell id="yXRnfc8bYZoUB2EsBNCf-2" value="客户端" style="ellipse;whiteSpace=wrap;html=1;" vertex="1" parent="1">
          <mxGeometry x="220" y="250" width="80" height="50" as="geometry" />
        </mxCell>
        <mxCell id="yXRnfc8bYZoUB2EsBNCf-4" value="" style="rounded=1;whiteSpace=wrap;html=1;" vertex="1" parent="1">
          <mxGeometry x="80" y="50" width="630" height="150" as="geometry" />
        </mxCell>
        <mxCell id="yXRnfc8bYZoUB2EsBNCf-5" value="客户端" style="ellipse;whiteSpace=wrap;html=1;" vertex="1" parent="1">
          <mxGeometry x="374" y="250" width="80" height="50" as="geometry" />
        </mxCell>
        <mxCell id="yXRnfc8bYZoUB2EsBNCf-6" value="&lt;b&gt;zookeeper集群&lt;/b&gt;" style="text;html=1;strokeColor=none;fillColor=none;align=center;verticalAlign=middle;whiteSpace=wrap;rounded=0;" vertex="1" parent="1">
          <mxGeometry x="100" y="50" width="110" height="20" as="geometry" />
        </mxCell>
        <mxCell id="yXRnfc8bYZoUB2EsBNCf-7" value="fllower" style="ellipse;whiteSpace=wrap;html=1;" vertex="1" parent="1">
          <mxGeometry x="160" y="90" width="80" height="40" as="geometry" />
        </mxCell>
        <mxCell id="yXRnfc8bYZoUB2EsBNCf-29" style="rounded=0;orthogonalLoop=1;jettySize=auto;html=1;exitX=0.5;exitY=0;exitDx=0;exitDy=0;entryX=1;entryY=0;entryDx=0;entryDy=0;elbow=vertical;edgeStyle=orthogonalEdgeStyle;curved=1;" edge="1" parent="1" source="yXRnfc8bYZoUB2EsBNCf-8" target="yXRnfc8bYZoUB2EsBNCf-10">
          <mxGeometry relative="1" as="geometry">
            <Array as="points">
              <mxPoint x="310" y="60" />
              <mxPoint x="618" y="60" />
            </Array>
          </mxGeometry>
        </mxCell>
        <mxCell id="yXRnfc8bYZoUB2EsBNCf-32" value="ack" style="edgeLabel;html=1;align=center;verticalAlign=middle;resizable=0;points=[];" vertex="1" connectable="0" parent="yXRnfc8bYZoUB2EsBNCf-29">
          <mxGeometry x="0.1197" y="2" relative="1" as="geometry">
            <mxPoint as="offset" />
          </mxGeometry>
        </mxCell>
        <mxCell id="yXRnfc8bYZoUB2EsBNCf-40" value="ack" style="edgeLabel;html=1;align=center;verticalAlign=middle;resizable=0;points=[];" vertex="1" connectable="0" parent="yXRnfc8bYZoUB2EsBNCf-29">
          <mxGeometry x="0.1287" y="3" relative="1" as="geometry">
            <mxPoint x="29" y="1" as="offset" />
          </mxGeometry>
        </mxCell>
        <mxCell id="yXRnfc8bYZoUB2EsBNCf-8" value="fllower" style="ellipse;whiteSpace=wrap;html=1;" vertex="1" parent="1">
          <mxGeometry x="270" y="90" width="80" height="40" as="geometry" />
        </mxCell>
        <mxCell id="yXRnfc8bYZoUB2EsBNCf-23" style="edgeStyle=entityRelationEdgeStyle;rounded=0;orthogonalLoop=1;jettySize=auto;html=1;exitX=1;exitY=0;exitDx=0;exitDy=0;entryX=0.5;entryY=0;entryDx=0;entryDy=0;" edge="1" parent="1" source="yXRnfc8bYZoUB2EsBNCf-9" target="yXRnfc8bYZoUB2EsBNCf-10">
          <mxGeometry relative="1" as="geometry" />
        </mxCell>
        <mxCell id="yXRnfc8bYZoUB2EsBNCf-24" value="write" style="edgeLabel;html=1;align=center;verticalAlign=middle;resizable=0;points=[];" vertex="1" connectable="0" parent="yXRnfc8bYZoUB2EsBNCf-23">
          <mxGeometry x="-0.0447" y="-3" relative="1" as="geometry">
            <mxPoint y="-6" as="offset" />
          </mxGeometry>
        </mxCell>
        <mxCell id="yXRnfc8bYZoUB2EsBNCf-30" style="edgeStyle=orthogonalEdgeStyle;curved=1;rounded=0;orthogonalLoop=1;jettySize=auto;html=1;exitX=0.5;exitY=0;exitDx=0;exitDy=0;entryX=1;entryY=0;entryDx=0;entryDy=0;" edge="1" parent="1" source="yXRnfc8bYZoUB2EsBNCf-9" target="yXRnfc8bYZoUB2EsBNCf-10">
          <mxGeometry relative="1" as="geometry">
            <Array as="points">
              <mxPoint x="420" y="70" />
              <mxPoint x="618" y="70" />
            </Array>
          </mxGeometry>
        </mxCell>
        <mxCell id="yXRnfc8bYZoUB2EsBNCf-33" value="ack" style="edgeLabel;html=1;align=center;verticalAlign=middle;resizable=0;points=[];" vertex="1" connectable="0" parent="yXRnfc8bYZoUB2EsBNCf-30">
          <mxGeometry x="-0.2533" y="-4" relative="1" as="geometry">
            <mxPoint as="offset" />
          </mxGeometry>
        </mxCell>
        <mxCell id="yXRnfc8bYZoUB2EsBNCf-41" value="ack" style="edgeLabel;html=1;align=center;verticalAlign=middle;resizable=0;points=[];" vertex="1" connectable="0" parent="yXRnfc8bYZoUB2EsBNCf-30">
          <mxGeometry x="-0.226" y="-4" relative="1" as="geometry">
            <mxPoint x="26" as="offset" />
          </mxGeometry>
        </mxCell>
        <mxCell id="yXRnfc8bYZoUB2EsBNCf-9" value="fllower" style="ellipse;whiteSpace=wrap;html=1;" vertex="1" parent="1">
          <mxGeometry x="380" y="90" width="80" height="40" as="geometry" />
        </mxCell>
        <mxCell id="yXRnfc8bYZoUB2EsBNCf-22" style="edgeStyle=orthogonalEdgeStyle;rounded=0;orthogonalLoop=1;jettySize=auto;html=1;exitX=0.5;exitY=1;exitDx=0;exitDy=0;curved=1;" edge="1" parent="1" source="yXRnfc8bYZoUB2EsBNCf-10" target="yXRnfc8bYZoUB2EsBNCf-9">
          <mxGeometry relative="1" as="geometry">
            <Array as="points">
              <mxPoint x="590" y="150" />
              <mxPoint x="444" y="150" />
            </Array>
          </mxGeometry>
        </mxCell>
        <mxCell id="yXRnfc8bYZoUB2EsBNCf-25" style="edgeStyle=orthogonalEdgeStyle;rounded=0;orthogonalLoop=1;jettySize=auto;html=1;exitX=0.5;exitY=1;exitDx=0;exitDy=0;entryX=0.5;entryY=1;entryDx=0;entryDy=0;elbow=vertical;curved=1;" edge="1" parent="1" source="yXRnfc8bYZoUB2EsBNCf-10" target="yXRnfc8bYZoUB2EsBNCf-8">
          <mxGeometry relative="1" as="geometry" />
        </mxCell>
        <mxCell id="yXRnfc8bYZoUB2EsBNCf-26" style="edgeStyle=orthogonalEdgeStyle;curved=1;rounded=0;orthogonalLoop=1;jettySize=auto;html=1;exitX=0.5;exitY=1;exitDx=0;exitDy=0;entryX=0.375;entryY=1;entryDx=0;entryDy=0;entryPerimeter=0;" edge="1" parent="1" source="yXRnfc8bYZoUB2EsBNCf-10" target="yXRnfc8bYZoUB2EsBNCf-7">
          <mxGeometry relative="1" as="geometry" />
        </mxCell>
        <mxCell id="yXRnfc8bYZoUB2EsBNCf-31" value="1.proposal 2.commit" style="edgeLabel;html=1;align=center;verticalAlign=middle;resizable=0;points=[];" vertex="1" connectable="0" parent="yXRnfc8bYZoUB2EsBNCf-26">
          <mxGeometry x="-0.475" y="-1" relative="1" as="geometry">
            <mxPoint as="offset" />
          </mxGeometry>
        </mxCell>
        <mxCell id="yXRnfc8bYZoUB2EsBNCf-10" value="leader" style="ellipse;whiteSpace=wrap;html=1;" vertex="1" parent="1">
          <mxGeometry x="550" y="90" width="80" height="40" as="geometry" />
        </mxCell>
        <mxCell id="yXRnfc8bYZoUB2EsBNCf-11" value="" style="endArrow=classic;html=1;" edge="1" parent="1" target="yXRnfc8bYZoUB2EsBNCf-7">
          <mxGeometry width="50" height="50" relative="1" as="geometry">
            <mxPoint x="260" y="250" as="sourcePoint" />
            <mxPoint x="310" y="200" as="targetPoint" />
          </mxGeometry>
        </mxCell>
        <mxCell id="yXRnfc8bYZoUB2EsBNCf-12" value="read" style="edgeLabel;html=1;align=center;verticalAlign=middle;resizable=0;points=[];" vertex="1" connectable="0" parent="yXRnfc8bYZoUB2EsBNCf-11">
          <mxGeometry x="0.2986" y="1" relative="1" as="geometry">
            <mxPoint as="offset" />
          </mxGeometry>
        </mxCell>
        <mxCell id="yXRnfc8bYZoUB2EsBNCf-13" value="" style="endArrow=classic;html=1;exitX=0.5;exitY=0;exitDx=0;exitDy=0;" edge="1" parent="1" source="yXRnfc8bYZoUB2EsBNCf-2" target="yXRnfc8bYZoUB2EsBNCf-8">
          <mxGeometry width="50" height="50" relative="1" as="geometry">
            <mxPoint x="270" y="260" as="sourcePoint" />
            <mxPoint x="218.38116354922226" y="139.556048281519" as="targetPoint" />
          </mxGeometry>
        </mxCell>
        <mxCell id="yXRnfc8bYZoUB2EsBNCf-14" value="read" style="edgeLabel;html=1;align=center;verticalAlign=middle;resizable=0;points=[];" vertex="1" connectable="0" parent="yXRnfc8bYZoUB2EsBNCf-13">
          <mxGeometry x="0.2986" y="1" relative="1" as="geometry">
            <mxPoint as="offset" />
          </mxGeometry>
        </mxCell>
        <mxCell id="yXRnfc8bYZoUB2EsBNCf-15" value="" style="endArrow=classic;html=1;entryX=0.5;entryY=1;entryDx=0;entryDy=0;exitX=0.5;exitY=0;exitDx=0;exitDy=0;" edge="1" parent="1" source="yXRnfc8bYZoUB2EsBNCf-5" target="yXRnfc8bYZoUB2EsBNCf-9">
          <mxGeometry width="50" height="50" relative="1" as="geometry">
            <mxPoint x="390" y="250" as="sourcePoint" />
            <mxPoint x="440" y="200" as="targetPoint" />
          </mxGeometry>
        </mxCell>
        <mxCell id="yXRnfc8bYZoUB2EsBNCf-16" value="write" style="edgeLabel;html=1;align=center;verticalAlign=middle;resizable=0;points=[];" vertex="1" connectable="0" parent="yXRnfc8bYZoUB2EsBNCf-15">
          <mxGeometry x="0.2677" y="-1" relative="1" as="geometry">
            <mxPoint as="offset" />
          </mxGeometry>
        </mxCell>
      </root>
    </mxGraphModel>
  </diagram>
</mxfile>
